<?xml version="1.0" standalone="no"?>
<!DOCTYPE svg PUBLIC "-//W3C//DTD SVG 20010904//EN"
 "http://www.w3.org/TR/2001/REC-SVG-20010904/DTD/svg10.dtd">
<svg version="1.0" xmlns="http://www.w3.org/2000/svg"
 width="344.000000pt" height="298.000000pt" viewBox="0 0 344.000000 298.000000"
 preserveAspectRatio="xMidYMid meet">

<g transform="translate(0.000000,298.000000) scale(0.100000,-0.100000)"
fill="#000000" stroke="none">
<path d="M0 1490 l0 -1490 1720 0 1720 0 0 1490 0 1490 -1720 0 -1720 0 0
-1490z m1910 1274 c6 -14 10 -71 10 -128 l0 -102 68 -16 c37 -10 76 -20 87
-23 17 -5 29 10 78 95 32 55 64 100 71 100 7 0 81 -39 165 -86 106 -61 151
-92 151 -104 0 -16 -37 -88 -90 -175 l-18 -30 63 -69 62 -68 96 56 c52 31 102
56 111 56 18 0 33 -23 130 -193 57 -98 66 -120 55 -133 -27 -33 -51 -11 -125
116 -40 69 -77 124 -82 123 -4 -1 -48 -25 -96 -52 -48 -28 -92 -51 -97 -51
-13 0 -199 189 -199 201 0 6 25 53 55 106 31 53 54 97 53 98 -2 1 -51 29 -109
62 l-107 60 -57 -98 c-32 -56 -63 -99 -72 -99 -8 0 -52 11 -97 25 -44 13 -100
29 -123 35 l-43 11 0 119 0 120 -125 0 -125 0 0 -107 c0 -60 -4 -114 -9 -121
-8 -13 -174 -60 -242 -69 l-37 -5 -57 97 c-31 53 -60 95 -65 93 -29 -11 -200
-115 -200 -122 0 -5 23 -48 50 -96 28 -48 50 -93 50 -99 0 -14 -187 -201 -201
-201 -6 0 -53 25 -106 55 -53 31 -97 54 -98 53 -1 -2 -35 -60 -75 -130 -60
-106 -77 -128 -96 -128 -47 0 -38 33 52 189 61 105 92 151 105 151 9 0 57 -23
105 -51 48 -27 90 -51 94 -52 3 -1 37 26 75 60 l68 61 -56 97 c-32 54 -57 104
-57 111 0 15 26 33 191 128 64 36 123 64 130 61 8 -3 40 -51 72 -106 46 -79
62 -99 75 -94 9 4 49 15 87 25 l70 18 3 118 c2 79 7 121 15 126 7 4 90 8 185
8 l172 0 10 -26z m-176 -160 c24 -9 21 -61 -4 -69 -39 -12 -66 35 -38 63 14
14 20 14 42 6z m-524 -189 c20 -25 8 -50 -25 -50 -31 0 -43 20 -31 51 7 18 40
18 56 -1z m1085 -20 c0 -27 -3 -30 -30 -30 -24 0 -31 5 -33 24 -4 27 13 42 43
39 15 -2 20 -11 20 -33z m-364 -74 c272 -70 500 -263 603 -510 32 -75 31 -106
-3 -106 -20 0 -29 12 -55 71 -50 114 -100 185 -189 270 -123 119 -242 182
-411 219 -107 24 -291 17 -391 -15 -240 -76 -429 -242 -525 -460 -29 -67 -46
-83 -71 -69 -26 14 -24 24 20 115 110 225 286 383 518 465 146 52 352 60 504
20z m-1146 -366 c0 -27 -3 -30 -30 -30 -21 0 -31 5 -33 18 -6 33 6 49 35 45
24 -3 28 -8 28 -33z m1900 0 c0 -27 -3 -30 -30 -30 -21 0 -31 5 -33 18 -6 33
6 49 35 45 24 -3 28 -8 28 -33z m-802 -36 c12 -7 35 -23 50 -35 34 -28 79 -31
152 -9 57 18 101 12 115 -15 6 -11 10 -142 10 -327 0 -288 -1 -310 -20 -340
-27 -44 -84 -62 -131 -39 -60 28 -63 41 -69 251 l-5 190 -25 0 -25 0 -5 -187
c-5 -169 -7 -189 -26 -215 -46 -62 -117 -67 -170 -12 l-29 30 -5 192 -5 192
-25 0 -25 0 -5 -190 c-4 -160 -8 -194 -23 -216 -19 -29 -56 -49 -90 -49 -32 0
-86 36 -97 66 -6 14 -10 103 -10 198 0 177 -4 196 -41 196 -26 0 -29 -20 -29
-177 0 -110 -4 -153 -15 -178 -38 -79 -152 -79 -190 2 -14 28 -16 70 -13 279
l3 246 35 29 c41 35 52 35 130 8 33 -11 69 -18 79 -14 11 3 42 24 68 46 l48
40 106 -7 c105 -6 106 -6 165 25 64 34 84 37 117 20z m-1276 -201 c45 -21 119
-91 129 -120 5 -16 22 -18 165 -18 l159 0 0 -125 0 -125 -160 0 c-88 0 -160
-4 -160 -9 0 -5 -20 -31 -45 -59 -115 -128 -320 -128 -430 1 l-36 42 106 5
106 5 49 65 48 65 -36 50 c-20 27 -43 60 -52 72 -14 21 -23 22 -117 23 -57 0
-103 3 -103 7 0 15 55 76 91 100 84 55 196 63 286 21z m2441 -3 c178 -81 220
-321 80 -464 -123 -126 -346 -107 -441 38 l-27 41 -185 0 -185 0 0 125 0 125
183 0 183 0 32 44 c81 116 225 152 360 91z m-708 -577 c0 -105 -16 -145 -69
-173 -42 -21 -434 -22 -486 -1 -40 17 -64 50 -72 102 -6 34 -4 37 13 30 86
-35 139 -31 196 14 l39 31 34 -29 c85 -75 213 -44 265 65 21 44 29 52 53 53
l27 0 0 -92z m218 41 c5 -39 -88 -214 -157 -295 -126 -149 -292 -252 -487
-301 -102 -25 -313 -22 -419 6 -177 47 -365 168 -473 304 -56 69 -142 221
-142 250 0 9 6 17 14 17 8 0 21 3 29 6 11 4 20 -8 33 -42 47 -123 204 -302
330 -376 147 -86 304 -124 474 -115 213 12 373 82 527 230 66 63 163 189 163
210 0 2 14 34 30 71 26 57 34 67 53 64 15 -2 23 -11 25 -29z m-1770 -227 c-2
-23 -8 -27 -33 -27 -24 0 -31 5 -33 24 -5 32 23 54 50 40 13 -7 18 -19 16 -37z
m1902 7 c0 -33 -13 -43 -46 -35 -28 8 -34 50 -8 64 29 16 54 3 54 -29z m253
16 c9 -8 13 -23 10 -32 -10 -39 -169 -298 -184 -301 -9 -2 -55 20 -102 48 -48
28 -93 53 -100 56 -9 3 -37 -21 -74 -63 l-61 -68 54 -93 c30 -52 54 -102 54
-112 0 -22 -295 -193 -320 -185 -9 3 -41 48 -70 101 -46 81 -58 94 -75 89 -11
-3 -50 -13 -87 -23 l-68 -16 0 -102 c0 -57 -4 -114 -10 -128 l-10 -26 -174 0
c-131 0 -176 3 -184 13 -6 7 -13 64 -14 126 l-3 113 -70 18 c-38 10 -78 21
-87 25 -13 5 -29 -15 -75 -94 -32 -55 -64 -103 -72 -106 -7 -3 -66 25 -130 61
-165 95 -191 113 -191 128 0 8 25 56 55 107 30 52 55 96 55 99 0 3 -31 33 -68
67 l-68 60 -93 -53 c-51 -30 -101 -54 -111 -54 -12 0 -43 44 -104 152 -89 156
-98 188 -52 188 19 0 36 -22 96 -127 40 -71 74 -129 75 -131 1 -1 45 22 98 53
53 30 100 55 106 55 14 0 201 -187 201 -201 0 -6 -22 -51 -50 -99 -27 -48 -50
-91 -50 -96 0 -8 191 -124 204 -124 3 0 30 43 61 95 31 52 60 97 65 100 5 3
45 -5 87 -18 43 -14 97 -28 121 -32 67 -11 72 -21 72 -146 l0 -109 125 0 125
0 0 120 0 119 43 12 c23 6 79 22 123 35 45 13 89 24 98 24 17 0 22 -7 87 -122
l44 -76 100 59 c55 32 104 60 108 62 5 1 -16 46 -47 99 -31 53 -56 101 -56
107 0 14 187 201 201 201 6 0 51 -22 99 -50 48 -27 91 -50 96 -50 5 0 29 35
53 78 70 121 110 182 120 182 5 0 16 -7 24 -15z m-1726 -441 c9 -24 -10 -49
-38 -49 -24 0 -36 23 -25 51 7 19 55 18 63 -2z m1081 -13 c5 -31 -11 -45 -42
-37 -19 5 -26 13 -26 30 0 30 9 38 40 34 18 -2 26 -10 28 -27z m-564 -147 c24
-9 21 -61 -4 -69 -39 -12 -66 35 -38 63 14 14 20 14 42 6z"/>
<path d="M737 1492 c-33 -36 -8 -92 40 -92 25 0 53 30 53 57 0 46 -62 69 -93
35z"/>
<path d="M2858 1577 l-68 -39 0 -83 0 -82 68 -40 67 -39 68 39 67 39 0 83 0
83 -67 39 -68 39 -67 -39z"/>
<path d="M2617 1492 c-22 -25 -21 -55 2 -76 26 -24 62 -17 80 15 13 24 13 29
-2 53 -21 31 -56 34 -80 8z"/>
</g>
</svg>
